<?xml version="1.0" standalone="no"?>
<!DOCTYPE svg PUBLIC "-//W3C//DTD SVG 20010904//EN"
 "http://www.w3.org/TR/2001/REC-SVG-20010904/DTD/svg10.dtd">
<svg version="1.0" xmlns="http://www.w3.org/2000/svg"
 width="500.000000pt" height="584.000000pt" viewBox="0 0 500.000000 584.000000"
 preserveAspectRatio="xMidYMid meet">

<g transform="translate(0.000000,584.000000) scale(0.100000,-0.100000)"
fill="#000000" stroke="none">
<path d="M3565 5820 c-118 -13 -221 -43 -321 -93 -164 -83 -262 -182 -365
-370 -37 -67 -66 -107 -83 -115 -15 -7 -117 -36 -228 -63 -320 -79 -323 -82
-322 -264 1 -234 61 -411 189 -552 98 -110 217 -165 472 -217 95 -19 182 -40
193 -46 23 -13 25 -38 6 -100 -24 -79 -52 -134 -95 -187 -137 -174 -398 -299
-891 -428 -416 -108 -492 -129 -625 -172 -298 -96 -566 -236 -728 -380 -45
-40 -46 -40 -119 57 -64 84 -141 243 -168 345 -68 266 -31 541 109 801 22 41
37 74 33 74 -17 0 -152 -86 -212 -135 -161 -132 -309 -368 -365 -581 -36 -140
-43 -389 -15 -549 28 -156 105 -348 196 -486 26 -41 47 -81 46 -89 0 -8 -21
-58 -45 -110 -85 -183 -119 -349 -120 -580 0 -295 66 -518 224 -745 242 -351
646 -527 1057 -460 216 35 422 143 570 299 88 93 121 141 182 268 68 141 84
207 84 353 0 103 -3 127 -22 170 -42 93 -104 135 -197 135 -62 0 -97 -14 -136
-57 -46 -49 -59 -88 -68 -206 -15 -178 -53 -261 -178 -383 -183 -178 -486
-207 -723 -68 -219 128 -360 400 -360 694 0 476 356 946 900 1185 123 54 271
105 565 196 546 168 824 310 1044 529 124 125 225 304 256 455 9 44 21 82 27
86 5 4 33 1 62 -7 126 -32 305 -42 429 -23 81 13 112 24 87 33 -8 3 -64 23
-125 45 -60 21 -197 74 -304 116 -230 90 -306 113 -512 154 -85 17 -181 40
-213 51 -155 53 -266 205 -292 399 l-6 50 39 10 c48 13 89 52 98 91 3 16 12
33 18 38 7 5 75 26 152 47 203 54 201 54 269 183 100 191 199 287 365 351 128
49 259 64 411 47 91 -10 93 -12 75 -72 -30 -99 -64 -282 -75 -407 -21 -230 12
-445 90 -596 53 -101 114 -164 197 -203 59 -28 71 -30 136 -25 54 5 89 15 142
41 192 96 476 369 571 549 36 68 39 77 39 162 0 83 -3 95 -33 151 -83 154
-339 343 -639 473 -238 104 -528 154 -748 131z"/>
<path d="M3344 5300 c-57 -23 -82 -107 -49 -170 19 -37 43 -50 95 -50 48 0 85
22 106 61 48 94 -53 199 -152 159z"/>
<path d="M4670 4384 c-47 -36 -86 -74 -88 -84 -2 -10 4 -56 13 -102 38 -194
27 -471 -25 -672 -82 -310 -185 -522 -424 -871 -372 -543 -487 -745 -560 -985
-62 -205 -83 -483 -51 -686 58 -378 301 -752 598 -922 42 -24 85 -46 95 -49
20 -5 20 -4 1 69 -78 291 -79 676 -3 998 59 251 123 407 352 863 193 383 250
525 312 773 65 259 84 421 84 699 -1 248 -13 378 -55 584 -39 191 -127 452
-152 450 -7 0 -50 -29 -97 -65z"/>
<path d="M3302 2764 c-23 -20 -68 -68 -100 -107 -161 -199 -263 -407 -320
-657 -23 -104 -26 -135 -26 -330 -1 -168 3 -234 17 -302 76 -374 316 -742 627
-960 69 -49 150 -93 150 -82 0 4 -31 50 -69 103 -184 257 -287 449 -360 671
-82 251 -111 425 -111 670 0 304 56 561 194 899 29 72 51 131 47 131 -3 0 -25
-16 -49 -36z"/>
</g>
</svg>
